<svg xmlns="http://www.w3.org/2000/svg" width="15" height="15" viewBox="0 0 15 15">
    <path data-name="icon / copy" d="M8.25 9.75H1.5A1.5 1.5 0 0 1 0 8.25V1.5A1.5 1.5 0 0 1 1.5 0h6.75a1.5 1.5 0 0 1 1.5 1.5v6.75a1.5 1.5 0 0 1-1.5 1.5M1.5 1a.5.5 0 0 0-.5.5v6.75a.5.5 0 0 0 .5.5h6.75a.5.5 0 0 0 .5-.5V1.5a.5.5 0 0 0-.5-.5zM15 13.5V6.75a1.5 1.5 0 0 0-1.5-1.5h-2.239a.5.5 0 0 0 0 1H13.5a.5.5 0 0 1 .5.5v6.75a.5.5 0 0 1-.5.5H6.75a.5.5 0 0 1-.5-.5v-2.239a.5.5 0 0 0-1 0V13.5a1.5 1.5 0 0 0 1.5 1.5h6.75a1.5 1.5 0 0 0 1.5-1.5" style="fill:#4d4d4d"/>
</svg>
