<svg xmlns="http://www.w3.org/2000/svg" width="15" height="15" viewBox="0 0 15 15">
    <path data-name="icon / good" d="M14.569 6.257a2.14 2.14 0 0 0-1.729-.866H9.976a.31.31 0 0 1-.31-.309V1.546A1.545 1.545 0 0 0 6.839.684l-3.21 4.773a1.2 1.2 0 0 0-.409-.082h-2A1.22 1.22 0 0 0 0 6.594v7.187A1.22 1.22 0 0 0 1.219 15h2a1.15 1.15 0 0 0 .219-.044V15H11.4a2.014 2.014 0 0 0 1.92-1.436l1.591-5.4a2.137 2.137 0 0 0-.341-1.9M3.22 14h-2a.218.218 0 0 1-.22-.219V6.594a.219.219 0 0 1 .219-.219h2a.219.219 0 0 1 .219.219v7.187A.218.218 0 0 1 3.22 14m10.731-6.123-1.591 5.4a1.007 1.007 0 0 1-.96.723H4.439V6.044l3.23-4.8a.545.545 0 0 1 1 .3v3.537A1.312 1.312 0 0 0 9.975 6.39h2.865a1.159 1.159 0 0 1 1.111 1.486" style="fill:#0076ff"/>
</svg>
