<svg data-name="icon / Visa RAG" xmlns="http://www.w3.org/2000/svg" width="16" height="16" viewBox="0 0 16 16">
    <path data-name="Path 155986" d="M6.409 16H0V9.591A6.409 6.409 0 1 1 6.409 16" style="fill:#fbbc04"/>
    <path data-name="Path 155987" d="M9.591 12.818H16V6.409a6.409 6.409 0 1 0-6.409 6.409" style="fill:#0076ff"/>
    <path data-name="Path 155988" d="M11.789 5.479H7.394a.331.331 0 0 1 0-.661h4.395a.331.331 0 1 1 0 .661" style="fill:#fff"/>
    <path data-name="Path 155989" d="M9.839 8H7.394a.331.331 0 1 1 0-.661h2.445a.331.331 0 1 1 0 .661" style="fill:#fff"/>
</svg>
